<svg width="36" height="36" viewBox="0 0 36 36" fill="none" xmlns="http://www.w3.org/2000/svg">
<circle cx="18" cy="18" r="18" fill="#FAE300"/>
<mask id="mask0" mask-type="alpha" maskUnits="userSpaceOnUse" x="7" y="8" width="23" height="21">
<path fill-rule="evenodd" clip-rule="evenodd" d="M7 8.4512H29.3793V28.6667H7V8.4512Z" fill="white"/>
</mask>
<g mask="url(#mask0)">
<path fill-rule="evenodd" clip-rule="evenodd" d="M18.1896 8.45119C12.0095 8.45119 7 12.3451 7 17.1492C7 20.2759 9.12262 23.0161 12.3083 24.5492C12.0743 25.4085 11.4609 27.662 11.3378 28.144C11.1863 28.7424 11.561 28.7343 11.8064 28.5732C11.9987 28.4472 14.8726 26.5264 16.1126 25.6972C16.7855 25.7952 17.4797 25.8474 18.1896 25.8474C24.3695 25.8474 29.3793 21.9525 29.3793 17.1492C29.3793 12.3451 24.3695 8.45119 18.1896 8.45119" fill="#391B1B"/>
</g>
<path fill-rule="evenodd" clip-rule="evenodd" d="M13.4788 14.5906H10.197C9.88855 14.5906 9.63867 14.8266 9.63867 15.1174C9.63867 15.4085 9.88855 15.6444 10.197 15.6444H11.2638V19.3552C11.2638 19.49 11.3221 19.6227 11.4245 19.7188C11.5246 19.8142 11.6647 19.8691 11.8082 19.8691H11.9275C12.0704 19.8691 12.21 19.8142 12.3105 19.7191C12.4126 19.6229 12.4711 19.491 12.4711 19.3552V15.6444H13.4788C13.7875 15.6444 14.0374 15.4085 14.0374 15.1174C14.0374 14.8266 13.7875 14.5906 13.4788 14.5906" fill="#FAE300"/>
<path fill-rule="evenodd" clip-rule="evenodd" d="M21.4748 19.2805H20.0261V15.2056C20.0261 14.8658 19.7688 14.5906 19.4513 14.5906C19.1337 14.5906 18.8765 14.8658 18.8765 15.2056V19.5979C18.8765 19.6319 18.8804 19.6639 18.8854 19.6962C18.8797 19.7279 18.8765 19.7612 18.8765 19.7942C18.8765 20.0786 19.091 20.309 19.3573 20.309H21.4748C21.7411 20.309 21.9556 20.0786 21.9556 19.7942C21.9556 19.5109 21.7411 19.2805 21.4748 19.2805" fill="#FAE300"/>
<path fill-rule="evenodd" clip-rule="evenodd" d="M26.2516 19.4345L24.6252 17.183L26.0946 15.6334C26.2936 15.4241 26.2936 15.0835 26.0948 14.8738C25.896 14.6642 25.5732 14.6642 25.3736 14.8738L23.5546 16.7914V15.2014C23.5546 14.8639 23.2955 14.5906 22.9757 14.5906C22.6557 14.5906 22.3965 14.8639 22.3965 15.2014V19.6982C22.3965 20.036 22.6557 20.3087 22.9757 20.3087C23.2955 20.3087 23.5546 20.036 23.5546 19.6982V18.3108L23.8852 17.9626L25.4235 20.0905C25.5948 20.3317 25.9202 20.3811 26.1485 20.1992C26.3772 20.0182 26.4233 19.6756 26.2516 19.4345" fill="#FAE300"/>
<path fill-rule="evenodd" clip-rule="evenodd" d="M15.264 18.1205L16.0061 15.9571C16.0145 15.9571 16.0217 15.9594 16.0301 15.9594L16.7717 18.1205H15.264ZM18.4069 19.5807L16.793 15.0706C16.793 15.0706 16.7892 15.067 16.7876 15.0656C16.6842 14.7909 16.3866 14.5906 16.0314 14.5906C15.6375 14.5906 15.3116 14.8365 15.2468 15.1584C15.2358 15.1823 15.2248 15.2064 15.216 15.2325L13.629 19.5807C13.531 19.8661 13.6779 20.178 13.9561 20.2779C14.2349 20.3782 14.541 20.2279 14.6389 19.9433L14.9135 19.1424H17.1224L17.3969 19.9433C17.4949 20.2279 17.8006 20.3782 18.0794 20.2779C18.3579 20.178 18.5049 19.8661 18.4069 19.5807V19.5807Z" fill="#FAE300"/>
</svg>
