<?xml version="1.0" encoding="UTF-8"?>
<svg width="17px" height="19px" viewBox="0 0 17 19" version="1.1" xmlns="http://www.w3.org/2000/svg" xmlns:xlink="http://www.w3.org/1999/xlink">
    <!-- Generator: Sketch 59.1 (86144) - https://sketch.com -->
    <title>filter-2</title>
    <desc>Created with Sketch.</desc>
    <g id="web_tutorial" stroke="none" stroke-width="1" fill="none" fill-rule="evenodd">
        <g id="영상제작강의_목록" transform="translate(-60.000000, -114.000000)" fill="#000000" fill-rule="nonzero">
            <g id="filter-2" transform="translate(60.000000, 114.000000)">
                <path d="M5.39588527,9.05152284 C5.70110239,9.49821775 5.60985974,9.12599757 5.60985974,18.0298144 C5.60985974,18.8265904 6.50870423,19.2826091 7.14220522,18.8060245 C9.84924773,16.7418735 10.3901023,16.5631111 10.3901023,15.5976254 C10.3901023,9.1092302 10.3153251,9.47412186 10.6040768,9.05152284 L15,3 L1,3 L5.39588527,9.05152284 Z" id="Path"></path>
                <path d="M16.8951034,0.395692308 C16.7428137,0.151692308 16.44412,0 16.1152994,0 L0.880594784,0 C0.17046147,0 -0.247378692,0.670061538 0.159977761,1.15692308 C0.163325191,1.1616 0.113739088,1.10483077 0.900090803,2 L16.0957666,2 C16.7658779,1.23713846 17.2138081,0.907538462 16.8951034,0.395692308 Z" id="Path"></path>
            </g>
        </g>
    </g>
</svg>