<?xml version="1.0" encoding="UTF-8"?>
<svg width="19px" height="18px" viewBox="0 0 19 18" version="1.1" xmlns="http://www.w3.org/2000/svg" xmlns:xlink="http://www.w3.org/1999/xlink">
    <!-- Generator: Sketch 59.1 (86144) - https://sketch.com -->
    <title>magnifying-glass</title>
    <desc>Created with Sketch.</desc>
    <g id="Symbols" stroke="none" stroke-width="1" fill="none" fill-rule="evenodd">
        <g id="header" transform="translate(-345.000000, -11.000000)" fill="#fff" fill-rule="nonzero">
            <g id="magnifying-glass" transform="translate(345.000000, 11.000000)">
                <path d="M15.3623804,12.5885253 C17.9744341,8.99258778 17.1008375,4.0132695 13.4123879,1.46733838 C9.72393816,-1.07859273 4.61651807,-0.227515743 2.00508827,3.36903025 C-0.606341536,6.96496794 0.266631108,11.9436778 3.95570476,14.4896089 C6.5883504,16.3067407 10.0690089,16.4466605 12.8457981,14.8479252 L15.5458972,17.48046 C16.1973508,18.1490331 17.2812346,18.1758004 17.9670078,17.5406864 C18.6527812,16.9061807 18.6802371,15.8494824 18.0294077,15.1809095 C18.0088157,15.1596173 17.9888478,15.1401502 17.9670078,15.1200746 L15.3623804,12.5885253 Z M8.67874235,13.1336041 C5.76404964,13.1342125 3.4009708,10.8322284 3.39909864,7.99064064 C3.39847481,5.14905292 5.75968162,2.84524374 8.67499828,2.84402664 C11.5859469,2.84281035 13.9477779,5.14114446 13.9534017,7.97908201 C13.9583858,10.821278 11.598427,13.1287372 8.68248625,13.1336041 C8.68123834,13.1336041 8.68061422,13.1336041 8.67874235,13.1336041 Z" id="Shape"></path>
            </g>
        </g>
    </g>
</svg>
