<svg width="54" height="67" viewBox="0 0 54 67" fill="none" xmlns="http://www.w3.org/2000/svg">
<path d="M54 20.721V30.5604C53.4777 30.5604 52.851 30.6662 52.2243 30.6662C47.5241 30.6662 43.1373 28.8676 39.7949 26.011V46.9592C39.7949 51.1912 38.4371 55.2116 36.0348 58.3856C32.6924 62.9349 27.2611 66.0031 21.0986 66.0031C14.4139 66.0031 8.56481 62.4059 5.3269 57.116C8.66926 60.29 13.1606 62.3001 18.0696 62.3001C24.1277 62.3001 29.559 59.3378 32.9013 54.6826C35.1992 51.5086 36.6615 47.594 36.6615 43.2563V22.2022C40.0038 25.1646 44.2862 26.8574 49.0909 26.8574C49.7176 26.8574 50.2398 26.8574 50.8665 26.7516V20.4036C51.8065 20.6152 52.6421 20.721 53.5822 20.721H54Z" fill="#FF004F"/>
<path d="M23.71 28.0212V38.9185C22.9788 38.7069 22.1433 38.6011 21.4121 38.6011C16.8164 38.6011 13.0562 42.5157 13.0562 47.2766C13.0562 48.3346 13.2651 49.2868 13.5785 50.239C11.4895 48.652 10.0272 46.1128 10.0272 43.2563C10.0272 38.4953 13.7874 34.5807 18.3831 34.5807C19.2187 34.5807 19.9498 34.6865 20.681 34.8981V27.9154C20.8899 27.9154 21.0988 27.9154 21.3077 27.9154C22.1433 27.9154 22.9788 27.9154 23.71 28.0212Z" fill="#FF004F"/>
<path d="M41.3617 12.8919C39.4817 11.1991 38.1238 8.8715 37.3927 6.43812H39.8995C39.8995 6.96712 39.8995 7.39032 39.8995 7.91931C40.1084 9.6121 40.6306 11.3049 41.3617 12.8919Z" fill="#FF004F"/>
<path d="M51.5454 20.3248V27.019C51.0152 27.1305 50.3791 27.1305 49.7429 27.1305C44.9717 27.1305 40.5185 25.2338 37.1256 22.2214V44.3123C37.1256 48.7751 35.7472 53.0148 33.3086 56.3619C29.8097 61.271 24.4023 64.395 18.2527 64.395C13.2694 64.395 8.71017 62.2751 5.31728 58.928C3.51481 55.8041 2.45453 52.2338 2.45453 48.3289C2.45453 37.5066 10.6187 28.6925 20.7973 28.3578V35.7214C20.0551 35.4983 19.2069 35.3867 18.4647 35.3867C13.7995 35.3867 9.9825 39.5148 9.9825 44.5355C9.9825 47.5479 11.3609 50.3371 13.5874 51.8991C14.7537 55.3578 17.9346 57.9239 21.5395 57.9239C26.2047 57.9239 30.0217 53.7958 30.0217 48.7751V5.48593H37.7618C38.504 8.16361 39.8823 10.5066 41.7908 12.2917C43.6993 16.3082 47.3043 19.3206 51.5454 20.3248Z" fill="black"/>
<path d="M20.7213 23.1586V26.8499C10.8245 27.1756 2.88654 35.7523 2.88654 46.2833C2.88654 50.0831 3.91745 53.5572 5.66999 56.5971C2.16491 53.0144 0 48.0203 0 42.3749C0 31.6268 8.24726 22.9415 18.3502 22.9415C19.1749 22.9415 19.9996 23.0501 20.7213 23.1586Z" fill="#00F7EF"/>
<path d="M37.2158 4.81093H29.6901V46.7175C29.6901 51.603 25.9789 55.62 21.4429 55.62C17.8347 55.62 14.8451 53.2315 13.7111 49.7574C15.0512 50.7345 16.7007 51.3859 18.4532 51.3859C22.9892 51.3859 26.7005 47.4775 26.7005 42.592V0.576843H36.7003V0.793976C36.7003 1.22824 36.7003 1.66251 36.8034 2.09677C36.8034 2.9653 37.0096 3.9424 37.2158 4.81093Z" fill="#00F7EF"/>
<path d="M50.6176 15.2333V19.1417C46.494 18.2732 42.9889 15.3419 41.0302 11.4335C43.6074 13.9305 46.9063 15.3419 50.6176 15.2333Z" fill="#00F7EF"/>
</svg>
