<svg width="36" height="36" viewBox="0 0 36 36" fill="none" xmlns="http://www.w3.org/2000/svg">
<circle cx="18" cy="18" r="18" fill="#454545"/>
<path d="M14.4199 13.7088V19.2927C14.4199 19.9256 14.2852 20.4744 14.0156 20.9392C13.7461 21.4002 13.3594 21.7517 12.8555 21.9939C12.3516 22.2361 11.7559 22.3572 11.0684 22.3572C10.0293 22.3572 9.21094 22.0877 8.61328 21.5486C8.01562 21.0095 7.71094 20.2713 7.69922 19.3338V13.7088H9.76758V19.3748C9.79102 20.3084 10.2246 20.7752 11.0684 20.7752C11.4941 20.7752 11.8164 20.658 12.0352 20.4236C12.2539 20.1892 12.3633 19.8084 12.3633 19.281V13.7088H14.4199ZM18.8789 19.2283H17.7656V22.24H15.709V13.7088H19.0664C20.0781 13.7088 20.8691 13.9334 21.4395 14.3826C22.0098 14.8318 22.2949 15.4666 22.2949 16.2869C22.2949 16.8806 22.1738 17.3728 21.9316 17.7634C21.6934 18.1541 21.3184 18.4705 20.8066 18.7127L22.5879 22.1521V22.24H20.3848L18.8789 19.2283ZM17.7656 17.6404H19.0664C19.457 17.6404 19.75 17.5388 19.9453 17.3357C20.1445 17.1287 20.2441 16.8416 20.2441 16.4744C20.2441 16.1072 20.1445 15.8201 19.9453 15.6131C19.7461 15.4021 19.4531 15.2966 19.0664 15.2966H17.7656V17.6404ZM25.5938 20.658H29.1738V22.24H23.5371V13.7088H25.5938V20.658Z" fill="white"/>
</svg>
