<svg width="74" height="65" viewBox="0 0 74 65" fill="none" xmlns="http://www.w3.org/2000/svg">
<path d="M73.9642 15.0586C73.6349 22.3362 68.6036 32.3016 58.8726 44.9496C48.8115 58.1617 40.2992 64.767 33.3357 64.767C29.0237 64.767 25.3718 60.745 22.3911 52.698C20.399 45.3219 18.4091 37.9466 16.4177 30.5704C14.2029 22.528 11.8282 18.5015 9.28928 18.5015C8.73576 18.5015 6.79842 19.6783 3.48172 22.0228L0 17.4912C3.65192 14.249 7.25501 11.0075 10.7996 7.76155C15.6703 3.50899 19.3267 1.27265 21.7635 1.04656C27.523 0.487657 31.0676 4.46487 32.3982 12.9789C33.836 22.1646 34.8305 27.8782 35.39 30.1145C37.0498 37.7354 38.8762 41.541 40.8719 41.541C42.4208 41.541 44.7473 39.0696 47.8494 34.1268C50.9486 29.1825 52.6084 25.421 52.8326 22.8369C53.2737 18.5702 51.6131 16.4316 47.8494 16.4316C46.0779 16.4316 44.2515 16.8435 42.3727 17.6576C46.0091 5.62221 52.9577 -0.222719 63.2142 0.110829C70.8177 0.33618 74.4023 5.31851 73.9642 15.0586Z" fill="#32B8E8"/>
</svg>
