<svg width="83" height="58" viewBox="0 0 83 58" fill="none" xmlns="http://www.w3.org/2000/svg">
<mask id="mask0" mask-type="alpha" maskUnits="userSpaceOnUse" x="0" y="0" width="83" height="58">
<path fill-rule="evenodd" clip-rule="evenodd" d="M0.993011 0.771912H83V57.2691H0.993011V0.771912Z" fill="white"/>
</mask>
<g mask="url(#mask0)">
<path fill-rule="evenodd" clip-rule="evenodd" d="M81.286 9.59395C80.3427 6.12178 77.5637 3.38669 74.0353 2.45876C67.64 0.771809 41.9961 0.771809 41.9961 0.771809C41.9961 0.771809 16.3521 0.771809 9.95688 2.45876C6.42847 3.38669 3.64898 6.12178 2.70614 9.59395C0.992981 15.8881 0.992981 29.0204 0.992981 29.0204C0.992981 29.0204 0.992981 42.1527 2.70614 48.4468C3.64898 51.9194 6.42847 54.6541 9.95688 55.5829C16.3521 57.2694 41.9961 57.2694 41.9961 57.2694C41.9961 57.2694 67.64 57.2694 74.0353 55.5829C77.5637 54.6541 80.3427 51.9194 81.286 48.4468C83.0001 42.1527 83.0001 29.0204 83.0001 29.0204C83.0001 29.0204 83.0001 15.8881 81.286 9.59395Z" fill="#FF3F41"/>
</g>
<path fill-rule="evenodd" clip-rule="evenodd" d="M34.768 40.7616L56.4805 28.9707L34.768 17.1794V40.7616Z" fill="#FEFEFE"/>
</svg>
