<?xml version="1.0" encoding="UTF-8"?>
<svg width="48px" height="27px" viewBox="0 0 48 27" version="1.1" xmlns="http://www.w3.org/2000/svg" xmlns:xlink="http://www.w3.org/1999/xlink">
    <!-- Generator: Sketch 59.1 (86144) - https://sketch.com -->
    <title>Group 13</title>
    <desc>Created with Sketch.</desc>
    <defs>
        <polygon id="path-1" points="0.082262069 0.575134487 21.0206897 0.575134487 21.0206897 26.5782937 0.082262069 26.5782937"></polygon>
    </defs>
    <g id="Symbols" stroke="none" stroke-width="1" fill="none" fill-rule="evenodd">
        <g id="header" transform="translate(0.000000, -6.000000)">
            <g id="Group-13" transform="translate(0.000000, 6.000000)">
                <g id="Group-12">
                    <path d="M15.6417103,1.940625 L23.0064,1.940625 L23.0064,16.36875 C23.0064,17.71875 22.7589517,19.153125 22.3451586,20.41875 C21.9313655,21.684375 21.1857103,22.865625 20.2761931,23.79375 C19.4486069,24.6375 18.4546759,25.396875 17.2968828,25.81875 C15.6417103,26.409375 13.9029517,26.6625 12.1658483,26.6625 C10.924469,26.6625 9.59950345,26.578125 8.35812414,26.409375 C7.20033103,26.325 6.04088276,25.903125 4.96584828,25.396875 C3.97191724,24.890625 3.14433103,24.215625 2.48308966,23.371875 C1.73826207,22.528125 1.24171034,21.6 0.910675862,20.5875 C0.496882759,19.2375 0.24777931,17.8875 0.24777931,16.453125 L0.24777931,1.940625 L7.4486069,1.940625 L7.4486069,16.70625 C7.36584828,17.803125 7.77964138,18.984375 8.52364138,19.828125 C10.2624,21.346875 12.7451586,21.346875 14.4830897,19.828125 C15.2279172,18.984375 15.6417103,17.8875 15.5581241,16.70625 L15.5581241,1.940625 L15.6417103,1.940625 Z" id="Fill-7" fill="#fff"></path>
                    <g id="Group-11" transform="translate(26.482759, 0.000000)">
                        <mask id="mask-2" fill="white">
                            <use xlink:href="#path-1"></use>
                        </mask>
                        <g id="Clip-10"></g>
                        <path d="M21.0210207,26.5782937 L0.082262069,26.5782937 C0.579641379,23.118075 0.993434483,22.6962 2.23481379,20.6720437 C3.3926069,18.7314187 5.71067586,16.6220437 9.10377931,14.0907937 C10.5926069,13.0782937 11.8339862,11.8970437 12.9934345,10.5470437 C13.4891586,9.87204375 13.8210207,9.11266875 13.8210207,8.26891875 C13.8210207,7.50954375 13.4891586,6.75016875 12.9934345,6.24391875 C12.4141241,5.65329375 11.668469,5.40016875 10.8408828,5.48454375 C10.0132966,5.48454375 9.26929655,5.73766875 8.68998621,6.32829375 C8.10984828,6.91891875 7.77964138,7.42516875 7.53053793,9.36579375 L0.579641379,9.36579375 C0.745158621,7.34079375 1.07536552,5.65329375 2.06929655,4.13454375 C2.81412414,2.95329375 3.88998621,2.10954375 5.13136552,1.51891875 C6.86846897,0.84391875 8.77191724,0.50641875 10.6761931,0.59079375 C12.6615724,0.50641875 14.5650207,0.75954375 16.3857103,1.43454375 C17.7106759,1.94079375 18.7865379,2.86891875 19.6141241,4.05016875 C20.3581241,5.23141875 20.8555034,6.58141875 20.7719172,8.01579375 C20.7719172,9.61891875 20.2761931,11.1376687 19.4486069,12.4876687 C18.5382621,13.9220437 16.9658483,15.4407937 14.5650207,17.211825 C13.1589517,18.2251687 12.2477793,18.899325 11.7520552,19.3212 C11.2546759,19.743075 10.7589517,20.2501687 10.0968828,20.8407937 L21.0210207,20.8407937 L21.0210207,26.5782937 Z" id="Fill-9" fill="#fff" mask="url(#mask-2)"></path>
                    </g>
                </g>
            </g>
        </g>
    </g>
</svg>
